<svg width="22" height="22" viewBox="0 0 22 22" fill="none" xmlns="http://www.w3.org/2000/svg">
<path d="M6.99188 2.75C7.13411 2.34771 7.39761 1.99943 7.74608 1.75316C8.09454 1.5069 8.5108 1.37478 8.9375 1.375H13.0625C13.4892 1.37478 13.9055 1.5069 14.2539 1.75316C14.6024 1.99943 14.8659 2.34771 15.0081 2.75H15.8125C16.3595 2.75 16.8841 2.9673 17.2709 3.35409C17.6577 3.74089 17.875 4.26549 17.875 4.8125V8.25H11C9.90598 8.25 8.85677 8.6846 8.08318 9.45818C7.3096 10.2318 6.875 11.281 6.875 12.375V17.875C6.875 18.931 7.27237 19.8962 7.9255 20.625H6.1875C5.64049 20.625 5.11589 20.4077 4.72909 20.0209C4.3423 19.6341 4.125 19.1095 4.125 18.5625V4.8125C4.125 4.26549 4.3423 3.74089 4.72909 3.35409C5.11589 2.9673 5.64049 2.75 6.1875 2.75H6.99188ZM8.9375 2.75C8.75516 2.75 8.5803 2.82243 8.45136 2.95136C8.32243 3.0803 8.25 3.25516 8.25 3.4375C8.25 3.61984 8.32243 3.7947 8.45136 3.92364C8.5803 4.05257 8.75516 4.125 8.9375 4.125H13.0625C13.2448 4.125 13.4197 4.05257 13.5486 3.92364C13.6776 3.7947 13.75 3.61984 13.75 3.4375C13.75 3.25516 13.6776 3.0803 13.5486 2.95136C13.4197 2.82243 13.2448 2.75 13.0625 2.75H8.9375ZM11 9.625C10.2707 9.625 9.57118 9.91473 9.05546 10.4305C8.53973 10.9462 8.25 11.6457 8.25 12.375V17.875C8.25 18.6043 8.53973 19.3038 9.05546 19.8195C9.57118 20.3353 10.2707 20.625 11 20.625H17.875C18.6043 20.625 19.3038 20.3353 19.8195 19.8195C20.3353 19.3038 20.625 18.6043 20.625 17.875V12.375C20.625 11.6457 20.3353 10.9462 19.8195 10.4305C19.3038 9.91473 18.6043 9.625 17.875 9.625H11ZM11.6875 12.375H17.1875C17.3698 12.375 17.5447 12.4474 17.6736 12.5764C17.8026 12.7053 17.875 12.8802 17.875 13.0625C17.875 13.2448 17.8026 13.4197 17.6736 13.5486C17.5447 13.6776 17.3698 13.75 17.1875 13.75H11.6875C11.5052 13.75 11.3303 13.6776 11.2014 13.5486C11.0724 13.4197 11 13.2448 11 13.0625C11 12.8802 11.0724 12.7053 11.2014 12.5764C11.3303 12.4474 11.5052 12.375 11.6875 12.375ZM11 17.1875C11 17.0052 11.0724 16.8303 11.2014 16.7014C11.3303 16.5724 11.5052 16.5 11.6875 16.5H17.1875C17.3698 16.5 17.5447 16.5724 17.6736 16.7014C17.8026 16.8303 17.875 17.0052 17.875 17.1875C17.875 17.3698 17.8026 17.5447 17.6736 17.6736C17.5447 17.8026 17.3698 17.875 17.1875 17.875H11.6875C11.5052 17.875 11.3303 17.8026 11.2014 17.6736C11.0724 17.5447 11 17.3698 11 17.1875Z" fill="black"/>
</svg>
