<svg width="24" height="24" viewBox="0 0 24 24" fill="none" xmlns="http://www.w3.org/2000/svg">
<path d="M2 20H4M4 20H9M4 20V7.2C4 6.08 4 5.52 4.218 5.092C4.41 4.715 4.715 4.41 5.092 4.218C5.52 4 6.08 4 7.2 4H8.8C9.92 4 10.48 4 10.907 4.218C11.284 4.41 11.591 4.715 11.782 5.092C12 5.519 12 6.079 12 7.197V10M9 20H20M9 20V14.368C9 13.843 9 13.58 9.063 13.335C9.119 13.118 9.211 12.912 9.335 12.725C9.475 12.515 9.671 12.338 10.061 11.988L12.363 9.92C13.118 9.242 13.496 8.903 13.923 8.774C14.2993 8.66061 14.7007 8.66061 15.077 8.774C15.505 8.903 15.883 9.242 16.639 9.921L18.939 11.988C19.329 12.338 19.524 12.515 19.665 12.725C19.789 12.912 19.881 13.118 19.936 13.335C20 13.58 20 13.843 20 14.368V20M20 20H22" stroke="black" stroke-width="1.2" stroke-linecap="round" stroke-linejoin="round"/>
</svg>
