<svg width="35" height="35" viewBox="0 0 35 35" fill="none" xmlns="http://www.w3.org/2000/svg">
<path d="M13.4896 18.9584C13.4896 20.5699 12.1844 21.8751 10.5729 21.8751C8.96146 21.8751 7.65625 20.5699 7.65625 18.9584C7.65625 17.347 8.96146 16.0417 10.5729 16.0417C12.1844 16.0417 13.4896 17.347 13.4896 18.9584Z" fill="black"/>
<path fill-rule="evenodd" clip-rule="evenodd" d="M10.5729 20.4167C10.9597 20.4167 11.3306 20.2631 11.6041 19.9896C11.8776 19.7161 12.0312 19.3452 12.0312 18.9584C12.0312 18.5716 11.8776 18.2007 11.6041 17.9272C11.3306 17.6537 10.9597 17.5001 10.5729 17.5001C10.1861 17.5001 9.81521 17.6537 9.54172 17.9272C9.26823 18.2007 9.11458 18.5716 9.11458 18.9584C9.11458 19.3452 9.26823 19.7161 9.54172 19.9896C9.81521 20.2631 10.1861 20.4167 10.5729 20.4167ZM10.5729 21.8751C12.1844 21.8751 13.4896 20.5699 13.4896 18.9584C13.4896 17.347 12.1844 16.0417 10.5729 16.0417C8.96146 16.0417 7.65625 17.347 7.65625 18.9584C7.65625 20.5699 8.96146 21.8751 10.5729 21.8751Z" fill="black"/>
<path d="M4.375 26.6473C4.375 24.4438 8.50427 23.3333 10.5729 23.3333C12.6416 23.3333 16.7708 24.4438 16.7708 26.6473V29.6249C16.7708 30.1772 16.3231 30.6249 15.7708 30.6249H5.375C4.82271 30.6249 4.375 30.1772 4.375 29.6249V26.6473Z" fill="black"/>
<path fill-rule="evenodd" clip-rule="evenodd" d="M6.07687 26.2375C5.84646 26.465 5.83333 26.5955 5.83333 26.648C5.83333 28.039 6.96092 29.1666 8.35187 29.1666H12.7932C14.1846 29.1666 15.3125 28.0387 15.3125 26.6473C15.3125 26.5963 15.2994 26.465 15.069 26.2375C14.8254 25.9976 14.4236 25.7402 13.8731 25.5047C12.7648 25.03 11.4115 24.7916 10.5729 24.7916C9.73437 24.7916 8.38031 25.03 7.27271 25.5047C6.72219 25.7402 6.32042 25.9976 6.07687 26.2375ZM10.5729 23.3333C8.50427 23.3333 4.375 24.4438 4.375 26.6473C4.375 28.8441 6.15583 30.6249 8.35261 30.6249H12.7932C14.99 30.6249 16.7708 28.8441 16.7708 26.6473C16.7708 24.4438 12.6416 23.3333 10.5729 23.3333Z" fill="black"/>
<path d="M27.3438 18.9584C27.3438 20.5699 26.0385 21.8751 24.4271 21.8751C22.8156 21.8751 21.5104 20.5699 21.5104 18.9584C21.5104 17.347 22.8156 16.0417 24.4271 16.0417C26.0385 16.0417 27.3438 17.347 27.3438 18.9584Z" fill="black"/>
<path fill-rule="evenodd" clip-rule="evenodd" d="M24.4271 20.4167C24.8139 20.4167 25.1848 20.2631 25.4583 19.9896C25.7318 19.7161 25.8854 19.3452 25.8854 18.9584C25.8854 18.5716 25.7318 18.2007 25.4583 17.9272C25.1848 17.6537 24.8139 17.5001 24.4271 17.5001C24.0403 17.5001 23.6694 17.6537 23.3959 17.9272C23.1224 18.2007 22.9688 18.5716 22.9688 18.9584C22.9688 19.3452 23.1224 19.7161 23.3959 19.9896C23.6694 20.2631 24.0403 20.4167 24.4271 20.4167ZM24.4271 21.8751C26.0385 21.8751 27.3438 20.5699 27.3438 18.9584C27.3438 17.347 26.0385 16.0417 24.4271 16.0417C22.8156 16.0417 21.5104 17.347 21.5104 18.9584C21.5104 20.5699 22.8156 21.8751 24.4271 21.8751Z" fill="black"/>
<path d="M20.4167 17.4999C20.4167 19.1114 19.1115 20.4166 17.5 20.4166C15.8885 20.4166 14.5833 19.1114 14.5833 17.4999C14.5833 15.8885 15.8885 14.5833 17.5 14.5833C19.1115 14.5833 20.4167 15.8885 20.4167 17.4999Z" fill="black"/>
<path fill-rule="evenodd" clip-rule="evenodd" d="M17.5 18.9583C17.8868 18.9583 18.2577 18.8046 18.5312 18.5311C18.8047 18.2576 18.9583 17.8867 18.9583 17.4999C18.9583 17.1131 18.8047 16.7422 18.5312 16.4687C18.2577 16.1952 17.8868 16.0416 17.5 16.0416C17.1132 16.0416 16.7423 16.1952 16.4688 16.4687C16.1953 16.7422 16.0417 17.1131 16.0417 17.4999C16.0417 17.8867 16.1953 18.2576 16.4688 18.5311C16.7423 18.8046 17.1132 18.9583 17.5 18.9583ZM17.5 20.4166C19.1115 20.4166 20.4167 19.1114 20.4167 17.4999C20.4167 15.8885 19.1115 14.5833 17.5 14.5833C15.8885 14.5833 14.5833 15.8885 14.5833 17.4999C14.5833 19.1114 15.8885 20.4166 17.5 20.4166Z" fill="black"/>
<path d="M16.7708 9.3574C16.7708 8.42276 16.3995 7.5264 15.7387 6.86551C15.0778 6.20462 14.1814 5.83333 13.2468 5.83333H10.936C9.97991 5.83179 9.06147 6.20607 8.37875 6.87546C7.69603 7.54485 7.30371 8.45573 7.2864 9.41171C7.26908 10.3677 7.62815 11.2922 8.28619 11.9858C8.94422 12.6795 9.8485 13.0868 10.8041 13.1199C10.8786 13.1227 10.9375 13.184 10.9375 13.2585V13.7874C10.9375 14.2071 11.3071 14.5223 11.7135 14.4178C13.3009 14.0097 16.7708 12.7316 16.7708 9.3574ZM18.9583 8.19292C18.9583 7.18034 19.3606 6.20924 20.0766 5.49324C20.7926 4.77724 21.7637 4.375 22.7762 4.375H26.9792C27.9461 4.375 28.8734 4.75911 29.5572 5.44284C30.2409 6.12657 30.625 7.0539 30.625 8.02083C30.625 8.98777 30.2409 9.9151 29.5572 10.5988C28.8734 11.2826 27.9461 11.6667 26.9792 11.6667H26.5208C25.9685 11.6667 25.5208 12.1144 25.5208 12.6667V12.7039C25.5208 13.3115 24.9864 13.7686 24.3997 13.6107C22.5252 13.1062 18.9583 11.6871 18.9583 8.19292ZM18.2292 26.6474C18.2292 24.4439 22.3584 23.3333 24.4271 23.3333C26.4957 23.3333 30.625 24.4439 30.625 26.6474V29.625C30.625 30.1773 30.1773 30.625 29.625 30.625H19.2292C18.6769 30.625 18.2292 30.1773 18.2292 29.625V26.6474Z" fill="black"/>
<path fill-rule="evenodd" clip-rule="evenodd" d="M19.931 26.2376C19.7006 26.4651 19.6875 26.5956 19.6875 26.6481V28.1667C19.6875 28.719 20.1352 29.1667 20.6875 29.1667H28.1667C28.719 29.1667 29.1667 28.719 29.1667 28.1667V26.6474C29.1667 26.5964 29.1535 26.4651 28.9231 26.2376C28.6796 25.9977 28.2778 25.7403 27.7273 25.5048C26.619 25.0301 25.2656 24.7917 24.4271 24.7917C23.5885 24.7917 22.2345 25.0301 21.1269 25.5048C20.5764 25.7403 20.1746 25.9977 19.931 26.2376ZM24.4271 23.3333C22.3584 23.3333 18.2292 24.4439 18.2292 26.6474V29.625C18.2292 30.1773 18.6769 30.625 19.2292 30.625H29.625C30.1773 30.625 30.625 30.1773 30.625 29.625V26.6474C30.625 24.4439 26.4957 23.3333 24.4271 23.3333ZM17.5 25.1891C17.5 24.6133 17.2015 24.1121 16.7213 23.6858C16.0516 23.0913 16.0377 21.9755 16.93 21.8996C17.1192 21.8836 17.3094 21.8753 17.5 21.875C17.6906 21.8753 17.8808 21.8836 18.07 21.8996C18.9623 21.9755 18.9484 23.0913 18.2787 23.6858C17.7985 24.1121 17.5 24.6133 17.5 25.1891Z" fill="black"/>
<path fill-rule="evenodd" clip-rule="evenodd" d="M17.5 25.1891C17.5 24.538 17.8821 23.9816 18.4771 23.5215L18.5799 23.445C18.7951 23.2887 19.0346 23.1442 19.2915 23.0113C19.6896 22.8053 19.703 22.2278 19.2703 22.1111C18.9381 22.0215 18.5991 21.9567 18.2561 21.9174C17.7536 21.8609 17.2464 21.8609 16.7439 21.9174C16.4004 21.9566 16.0609 22.0215 15.7282 22.1112C15.2957 22.2278 15.3088 22.8047 15.7068 23.0104C15.9642 23.1434 16.2041 23.288 16.4194 23.4442C16.4544 23.4697 16.4886 23.4953 16.5222 23.5215C17.1179 23.9809 17.5 24.538 17.5 25.1891Z" fill="black"/>
</svg>
