<svg width="24" height="24" viewBox="0 0 24 24" fill="none" xmlns="http://www.w3.org/2000/svg">
<path fill-rule="evenodd" clip-rule="evenodd" d="M7.5 3.25C8.50297 3.24938 9.49133 3.49039 10.3814 3.95265C10.9851 4.26618 11.5316 4.67522 12.0006 5.16209C13.1366 3.98407 14.7328 3.25 16.5 3.25C19.9517 3.25 22.75 6.04829 22.75 9.5C22.75 12.5381 20.9668 15.3433 18.8454 17.4856C16.7168 19.6353 14.1191 21.2492 12.2365 21.8747C12.083 21.9258 11.917 21.9258 11.7635 21.8747C9.88092 21.2492 7.28321 19.6353 5.15457 17.4856C3.03322 15.3433 1.25 12.5381 1.25 9.5C1.25 6.04846 4.048 3.25029 7.49947 3.25M9.6901 5.28384C9.01373 4.93258 8.26268 4.74946 7.50053 4.75L7.5 4.75C4.87671 4.75 2.75 6.87672 2.75 9.5C2.75 11.9619 4.21678 14.4067 6.22043 16.4302C8.12163 18.3501 10.391 19.7727 12 20.3681C13.609 19.7727 15.8784 18.3501 17.7796 16.4302C19.7832 14.4067 21.25 11.9619 21.25 9.5C21.25 6.87672 19.1233 4.75 16.5 4.75C14.8942 4.75 13.4738 5.54631 12.6133 6.76871C12.4727 6.9684 12.2437 7.08715 11.9995 7.087C11.7553 7.08685 11.5265 6.96781 11.3862 6.76794C10.9482 6.14417 10.3665 5.6351 9.6901 5.28384Z" fill="black"/>
</svg>
