<svg width="24" height="24" viewBox="0 0 24 24" fill="none" xmlns="http://www.w3.org/2000/svg">
<path d="M19.125 0.75H4.875C4.57663 0.75 4.29048 0.868526 4.0795 1.0795C3.86853 1.29048 3.75 1.57663 3.75 1.875V22.125C3.75 22.4234 3.86853 22.7095 4.0795 22.9205C4.29048 23.1315 4.57663 23.25 4.875 23.25H19.125C19.4234 23.25 19.7095 23.1315 19.9205 22.9205C20.1315 22.7095 20.25 22.4234 20.25 22.125V1.875C20.25 1.57663 20.1315 1.29048 19.9205 1.0795C19.7095 0.868526 19.4234 0.75 19.125 0.75ZM16.2609 14.6611C16.2821 15.0681 16.1794 15.472 15.9663 15.8194C15.7532 16.1669 15.4398 16.4416 15.0675 16.6073C14.6951 16.773 14.2812 16.8219 13.8805 16.7476C13.4798 16.6732 13.111 16.4792 12.8228 16.191C12.5346 15.9028 12.3405 15.534 12.2662 15.1333C12.1919 14.7325 12.2408 14.3187 12.4065 13.9463C12.5722 13.5739 12.8469 13.2605 13.1943 13.0475C13.5418 12.8344 13.9456 12.7317 14.3527 12.7528C14.8504 12.7787 15.3209 12.988 15.6733 13.3405C16.0257 13.6929 16.2351 14.1634 16.2609 14.6611ZM9 3H15V4.5H9V3ZM18 21H10.5V19.8469C10.5 18.3131 12.997 17.5402 14.25 17.5402C15.503 17.5402 18 18.3131 18 19.8469V21Z" fill="black"/>
</svg>
