<svg width="24" height="24" viewBox="0 0 24 24" fill="none" xmlns="http://www.w3.org/2000/svg">
<path fill-rule="evenodd" clip-rule="evenodd" d="M18.6672 6.85937H15.96V5.9378C15.96 4.30574 14.6351 3.00021 13.0224 3.00021H11.2369C9.60479 2.98105 8.27999 4.30574 8.27999 5.91864V6.8402H5.57276C4.15193 6.8402 3 7.99227 3 9.41297V11.6594C3.84483 11.909 4.99673 12.1778 6.5328 12.389V12.3314C6.5328 11.4481 7.24316 10.7378 8.12639 10.7378H9.02879C9.91206 10.7378 10.6224 11.4482 10.6224 12.3314V12.6769C11.1024 12.6961 11.6016 12.6961 12.12 12.6961C12.6384 12.6961 13.1376 12.6961 13.5984 12.6769V12.3314C13.5984 11.4481 14.3088 10.7378 15.192 10.7378H16.0944C16.9777 10.7378 17.688 11.4482 17.688 12.3314L17.6879 12.4081C19.2239 12.2161 20.3758 11.9473 21.2207 11.6785L21.2208 9.43226C21.24 7.99226 20.0879 6.85935 18.6672 6.85935V6.85937ZM10.488 6.85937V5.9378C10.488 5.53453 10.8144 5.20817 11.2177 5.20817H13.0032C13.4065 5.20817 13.7328 5.53455 13.7328 5.9378V6.85937H10.488Z" fill="black"/>
<path fill-rule="evenodd" clip-rule="evenodd" d="M17.7072 14.2705C17.7072 15.1537 16.9968 15.8641 16.1136 15.8641H15.2112C14.3279 15.8641 13.6176 15.1537 13.6176 14.2705V13.8865C13.1376 13.9057 12.6385 13.9057 12.1392 13.9057C11.6208 13.9057 11.1216 13.9057 10.6416 13.8865V14.2705C10.6416 15.1537 9.93122 15.8641 9.04799 15.8641H8.14559C7.26232 15.8641 6.55199 15.1537 6.55199 14.2705V13.5984C5.07356 13.4063 3.92163 13.176 3.0192 12.9263V17.7455C3.0192 19.1664 4.17126 20.3183 5.59196 20.3183H18.6863C20.1072 20.3183 21.2591 19.1662 21.2591 17.7455V12.9075C20.3567 13.1571 19.2046 13.4066 17.7263 13.5795V14.2706L17.7072 14.2705Z" fill="black"/>
<path fill-rule="evenodd" clip-rule="evenodd" d="M9.02883 14.6931C9.25919 14.6931 9.45123 14.501 9.45123 14.2706V12.3506C9.45123 12.1203 9.25917 11.9282 9.02883 11.9282H8.12644C7.89608 11.9282 7.70404 12.1203 7.70404 12.3506V14.2706C7.70404 14.501 7.89609 14.6931 8.12644 14.6931H9.02883Z" fill="black"/>
<path fill-rule="evenodd" clip-rule="evenodd" d="M16.1136 14.6931C16.344 14.6931 16.536 14.501 16.536 14.2706V12.3506C16.536 12.1203 16.344 11.9282 16.1136 11.9282H15.2112C14.9809 11.9282 14.7888 12.1203 14.7888 12.3506V14.2706C14.7888 14.501 14.9809 14.6931 15.2112 14.6931H16.1136Z" fill="black"/>
</svg>
