<svg width="24" height="24" viewBox="0 0 24 24" fill="none" xmlns="http://www.w3.org/2000/svg">
<path fill-rule="evenodd" clip-rule="evenodd" d="M16.4697 8.46967C16.7626 8.17678 17.2374 8.17678 17.5303 8.46967L20.5303 11.4697C20.8232 11.7626 20.8232 12.2374 20.5303 12.5303L17.5303 15.5303C17.2374 15.8232 16.7626 15.8232 16.4697 15.5303C16.1768 15.2374 16.1768 14.7626 16.4697 14.4697L18.1893 12.75H10C9.58579 12.75 9.25 12.4142 9.25 12C9.25 11.5858 9.58579 11.25 10 11.25H18.1893L16.4697 9.53033C16.1768 9.23744 16.1768 8.76256 16.4697 8.46967Z" fill="black"/>
<path fill-rule="evenodd" clip-rule="evenodd" d="M12 4.75C10.0772 4.75 8.23311 5.51384 6.87348 6.87348C5.51384 8.23311 4.75 10.0772 4.75 12C4.75 12.4142 4.41421 12.75 4 12.75C3.58579 12.75 3.25 12.4142 3.25 12C3.25 9.67936 4.17187 7.45376 5.81282 5.81282C7.45376 4.17187 9.67936 3.25 12 3.25C12.4142 3.25 12.75 3.58579 12.75 4C12.75 4.41421 12.4142 4.75 12 4.75ZM5.28678 16.4141C5.61036 16.1555 6.0823 16.2082 6.34089 16.5318C7.01935 17.3807 7.88035 18.066 8.85994 18.5365C9.83954 19.0071 10.9126 19.251 11.9993 19.25C12.4135 19.2496 12.7496 19.5851 12.75 19.9993C12.7504 20.4135 12.4149 20.7496 12.0007 20.75C10.6886 20.7512 9.39312 20.4568 8.21043 19.8886C7.02774 19.3205 5.98823 18.4932 5.16911 17.4682C4.91052 17.1446 4.9632 16.6727 5.28678 16.4141Z" fill="black"/>
</svg>
