<svg width="24" height="24" viewBox="0 0 24 24" fill="none" xmlns="http://www.w3.org/2000/svg">
<path d="M4 10.0009L10.108 14.6129L10.11 14.6149C10.788 15.1119 11.127 15.3609 11.499 15.4569C11.8276 15.5419 12.1724 15.5419 12.501 15.4569C12.873 15.3609 13.213 15.1109 13.893 14.6129L20 10.0009M19.8 9.0409L14.201 4.5579C13.506 4.0009 13.158 3.7229 12.771 3.6119C12.4297 3.51456 12.0687 3.50973 11.725 3.5979C11.336 3.6979 10.981 3.9659 10.271 4.5029L4.27 9.0409C3.804 9.3929 3.571 9.5689 3.403 9.7909C3.2543 9.98816 3.14343 10.2113 3.076 10.4489C3 10.7169 3 11.0089 3 11.5929V17.8009C3 18.9209 3 19.4809 3.218 19.9089C3.41 20.2859 3.715 20.5909 4.092 20.7829C4.519 21.0009 5.079 21.0009 6.197 21.0009H17.803C18.921 21.0009 19.48 21.0009 19.907 20.7829C20.284 20.5909 20.59 20.2849 20.782 19.9089C21 19.4819 21 18.9219 21 17.8039V11.5269C21 10.9699 21 10.6899 20.929 10.4309C20.8649 10.2001 20.7599 9.98264 20.619 9.7889C20.46 9.5689 20.241 9.3929 19.8 9.0399V9.0409Z" stroke="#C8CDD4" stroke-width="2" stroke-linecap="round" stroke-linejoin="round"/>
</svg>
