<svg width="24" height="24" viewBox="0 0 24 24" fill="none" xmlns="http://www.w3.org/2000/svg">
<path fill-rule="evenodd" clip-rule="evenodd" d="M12 7.25C12.4142 7.25 12.75 7.58579 12.75 8V8.01051C13.8389 8.2847 14.75 9.14291 14.75 10.333C14.75 10.7472 14.4142 11.083 14 11.083C13.5858 11.083 13.25 10.7472 13.25 10.333C13.25 9.94957 12.8248 9.417 12 9.417C11.1752 9.417 10.75 9.94957 10.75 10.333C10.75 10.7177 11.1755 11.25 12 11.25C13.3858 11.25 14.75 12.2109 14.75 13.667C14.75 14.8571 13.8389 15.7153 12.75 15.9895V16C12.75 16.4142 12.4142 16.75 12 16.75C11.5858 16.75 11.25 16.4142 11.25 16V15.9895C10.1611 15.7153 9.25 14.8571 9.25 13.667C9.25 13.2528 9.58579 12.917 10 12.917C10.4142 12.917 10.75 13.2528 10.75 13.667C10.75 14.0504 11.1752 14.583 12 14.583C12.8248 14.583 13.25 14.0504 13.25 13.667C13.25 13.2831 12.8242 12.75 12 12.75C10.6145 12.75 9.25 11.7903 9.25 10.333C9.25 9.14291 10.1611 8.2847 11.25 8.01051V8C11.25 7.58579 11.5858 7.25 12 7.25Z" fill="black"/>
<path d="M17 3.33801C15.4805 2.45891 13.7555 1.99731 12 2.00001C6.477 2.00001 2 6.47701 2 12C2 13.6 2.376 15.112 3.043 16.453C3.221 16.809 3.28 17.216 3.177 17.601L2.582 19.827C2.52329 20.0472 2.52351 20.279 2.58264 20.4991C2.64177 20.7193 2.75773 20.92 2.91889 21.0811C3.08005 21.2423 3.28075 21.3582 3.50087 21.4174C3.72098 21.4765 3.95277 21.4767 4.173 21.418L6.399 20.823C6.78541 20.7258 7.19403 20.7731 7.548 20.956C8.93092 21.6446 10.4551 22.0021 12 22C17.523 22 22 17.523 22 12C22 10.179 21.513 8.47001 20.662 7.00001" stroke="black" stroke-width="1.5" stroke-linecap="round"/>
</svg>
