<svg width="24" height="24" viewBox="0 0 24 24" fill="none" xmlns="http://www.w3.org/2000/svg">
<path d="M18.1867 4.65586C15.9789 2.44805 12.3836 2.44805 10.1781 4.65586L4.06096 10.7684C4.02112 10.8082 4.00002 10.8621 4.00002 10.9184C4.00002 10.9746 4.02112 11.0285 4.06096 11.0684L4.9258 11.9332C4.96533 11.9726 5.01885 11.9947 5.07463 11.9947C5.13042 11.9947 5.18393 11.9726 5.22346 11.9332L11.3406 5.8207C12.1 5.06133 13.1102 4.64414 14.1836 4.64414C15.2571 4.64414 16.2672 5.06133 17.0242 5.8207C17.7836 6.58008 18.2008 7.59023 18.2008 8.66133C18.2008 9.73477 17.7836 10.7426 17.0242 11.502L10.7899 17.734L9.77971 18.7441C8.83518 19.6887 7.30002 19.6887 6.35549 18.7441C5.89846 18.2871 5.64768 17.6801 5.64768 17.0332C5.64768 16.3863 5.89846 15.7793 6.35549 15.3223L12.5406 9.13945C12.6977 8.98477 12.9039 8.89805 13.1242 8.89805H13.1266C13.3469 8.89805 13.5508 8.98477 13.7055 9.13945C13.8625 9.29648 13.9469 9.50273 13.9469 9.72305C13.9469 9.94102 13.8602 10.1473 13.7055 10.302L8.65002 15.3527C8.61018 15.3926 8.58908 15.4465 8.58908 15.5027C8.58908 15.559 8.61018 15.6129 8.65002 15.6527L9.51487 16.5176C9.5544 16.5569 9.60791 16.579 9.66369 16.579C9.71948 16.579 9.77299 16.5569 9.81252 16.5176L14.8656 11.4645C15.3321 10.998 15.5875 10.3793 15.5875 9.7207C15.5875 9.06211 15.3297 8.44102 14.8656 7.97695C13.9024 7.01367 12.3367 7.01602 11.3735 7.97695L10.7735 8.5793L5.19065 14.1598C4.81173 14.5365 4.51138 14.9846 4.307 15.4783C4.10261 15.9719 3.99827 16.5013 4.00002 17.0355C4.00002 18.1207 4.42424 19.1402 5.19065 19.9066C5.98518 20.6988 7.0258 21.0949 8.06643 21.0949C9.10705 21.0949 10.1477 20.6988 10.9399 19.9066L18.1867 12.6645C19.2531 11.5957 19.8438 10.173 19.8438 8.66133C19.8461 7.14727 19.2555 5.72461 18.1867 4.65586Z" fill="black"/>
</svg>
