<svg width="24" height="24" viewBox="0 0 24 24" fill="none" xmlns="http://www.w3.org/2000/svg">
<path fill-rule="evenodd" clip-rule="evenodd" d="M3.39999 9.4999C3.39999 4.99066 7.28717 1.3999 12 1.3999C16.7128 1.3999 20.6 4.99066 20.6 9.4999C20.6 12.976 18.4752 16.2426 16.4538 18.5799C15.432 19.7613 14.4119 20.7334 13.6477 21.4101C13.2652 21.7487 12.9458 22.0143 12.7208 22.1961C12.6084 22.287 12.5194 22.357 12.458 22.4047C12.4273 22.4286 12.4034 22.4469 12.3869 22.4595L12.3678 22.474L12.3624 22.4781L12.3608 22.4793L12.3603 22.4797C12.3601 22.4798 12.36 22.4799 12 21.9999C11.64 22.4799 11.6398 22.4798 11.6397 22.4797L11.6391 22.4793L11.6376 22.4781L11.6322 22.474L11.6131 22.4595C11.5966 22.4469 11.5727 22.4286 11.542 22.4047C11.4806 22.357 11.3916 22.287 11.2791 22.1961C11.0542 22.0143 10.7348 21.7487 10.3522 21.4101C9.58806 20.7334 8.56797 19.7613 7.54618 18.5799C5.52474 16.2426 3.39999 12.976 3.39999 9.4999ZM12 21.9999L11.64 22.4799C11.8533 22.6399 12.1467 22.6399 12.36 22.4799L12 21.9999ZM12 21.2357C12.2106 21.0648 12.5036 20.8204 12.8522 20.5116C13.5881 19.8601 14.568 18.926 15.5462 17.7949C17.5247 15.5072 19.4 12.5239 19.4 9.4999C19.4 5.72514 16.1242 2.5999 12 2.5999C7.87582 2.5999 4.59999 5.72514 4.59999 9.4999C4.59999 12.5239 6.47525 15.5072 8.45381 17.7949C9.43202 18.926 10.4119 19.8601 11.1477 20.5116C11.4964 20.8204 11.7893 21.0648 12 21.2357Z" fill="black"/>
<path fill-rule="evenodd" clip-rule="evenodd" d="M10.5 6.3999C10.8314 6.3999 11.1 6.66853 11.1 6.9999V14.9999C11.1 15.3313 10.8314 15.5999 10.5 15.5999C10.1686 15.5999 9.89999 15.3313 9.89999 14.9999V6.9999C9.89999 6.66853 10.1686 6.3999 10.5 6.3999Z" fill="black"/>
<path fill-rule="evenodd" clip-rule="evenodd" d="M9.89999 6.9999C9.89999 6.66853 10.1686 6.3999 10.5 6.3999H13.5C14.1896 6.3999 14.8509 6.67383 15.3385 7.16142C15.8261 7.64902 16.1 8.31034 16.1 8.9999C16.1 9.68947 15.8261 10.3508 15.3385 10.8384C14.8509 11.326 14.1896 11.5999 13.5 11.5999H10.5C10.1686 11.5999 9.89999 11.3313 9.89999 10.9999V6.9999ZM11.1 7.5999V10.3999H13.5C13.8713 10.3999 14.2274 10.2524 14.4899 9.98985C14.7525 9.7273 14.9 9.3712 14.9 8.9999C14.9 8.6286 14.7525 8.2725 14.4899 8.00995C14.2274 7.7474 13.8713 7.5999 13.5 7.5999H11.1Z" fill="black"/>
</svg>
