<svg width="24" height="24" viewBox="0 0 24 24" fill="none" xmlns="http://www.w3.org/2000/svg">
<path d="M6 2H18C19.0609 2 20.0783 2.42143 20.8284 3.17157C21.5786 3.92172 22 4.93913 22 6V12H16C14.55 12 13.28 12.77 12.58 13.924C12.3905 13.9878 12.1919 14.0202 11.992 14.02C11.356 14.02 10.848 13.706 10.456 13.314C10.2372 13.0929 10.0483 12.8441 9.894 12.574C9.77066 12.3453 9.56312 12.1735 9.31535 12.0952C9.06758 12.0168 8.79904 12.038 8.56661 12.1542C8.33418 12.2704 8.15611 12.4726 8.07014 12.7178C7.98416 12.963 7.99702 13.2321 8.106 13.468V13.472L8.11 13.474L8.114 13.484L8.13 13.514C8.19759 13.6432 8.27306 13.7681 8.356 13.888C8.506 14.116 8.736 14.42 9.042 14.728C9.648 15.336 10.636 16.02 11.992 16.02H12V22H6C4.93913 22 3.92172 21.5786 3.17157 20.8284C2.42143 20.0783 2 19.0609 2 18V6C2 4.93913 2.42143 3.92172 3.17157 3.17157C3.92172 2.42143 4.93913 2 6 2ZM9 10C9.26522 10 9.51957 9.89464 9.70711 9.70711C9.89464 9.51957 10 9.26522 10 9C10 8.73478 9.89464 8.48043 9.70711 8.29289C9.51957 8.10536 9.26522 8 9 8C8.73478 8 8.48043 8.10536 8.29289 8.29289C8.10536 8.48043 8 8.73478 8 9C8 9.26522 8.10536 9.51957 8.29289 9.70711C8.48043 9.89464 8.73478 10 9 10ZM15 10C15.2652 10 15.5196 9.89464 15.7071 9.70711C15.8946 9.51957 16 9.26522 16 9C16 8.73478 15.8946 8.48043 15.7071 8.29289C15.5196 8.10536 15.2652 8 15 8C14.7348 8 14.4804 8.10536 14.2929 8.29289C14.1054 8.48043 14 8.73478 14 9C14 9.26522 14.1054 9.51957 14.2929 9.70711C14.4804 9.89464 14.7348 10 15 10ZM22 14H16C15.4696 14 14.9609 14.2107 14.5858 14.5858C14.2107 14.9609 14 15.4696 14 16V22H15C15.1314 22.0002 15.2616 21.9746 15.3831 21.9245C15.5045 21.8744 15.615 21.8008 15.708 21.708L21.708 15.708C21.8008 15.615 21.8744 15.5045 21.9245 15.3831C21.9746 15.2616 22.0002 15.1314 22 15V14Z" fill="#6B7684"/>
</svg>
