<svg width="24" height="24" viewBox="0 0 24 24" fill="none" xmlns="http://www.w3.org/2000/svg">
<path d="M12 9C12.6172 9 13.1992 9.11719 13.7461 9.35156C14.293 9.58594 14.7695 9.90625 15.1758 10.3125C15.582 10.7188 15.9062 11.1992 16.1484 11.7539C16.3906 12.3086 16.5078 12.8906 16.5 13.5C16.5 14.125 16.3828 14.707 16.1484 15.2461C15.9141 15.7852 15.5938 16.2617 15.1875 16.6758C14.7812 17.0898 14.3008 17.4141 13.7461 17.6484C13.1914 17.8828 12.6094 18 12 18C11.375 18 10.793 17.8828 10.2539 17.6484C9.71484 17.4141 9.23828 17.0938 8.82422 16.6875C8.41016 16.2812 8.08594 15.8047 7.85156 15.2578C7.61719 14.7109 7.5 14.125 7.5 13.5C7.5 12.8828 7.61719 12.3008 7.85156 11.7539C8.08594 11.207 8.40625 10.7305 8.8125 10.3242C9.21875 9.91797 9.69531 9.59375 10.2422 9.35156C10.7891 9.10938 11.375 8.99219 12 9ZM12 16.5C12.4141 16.5 12.8008 16.4219 13.1602 16.2656C13.5195 16.1094 13.8398 15.8945 14.1211 15.6211C14.4023 15.3477 14.6172 15.0312 14.7656 14.6719C14.9141 14.3125 14.9922 13.9219 15 13.5C15 13.0859 14.9219 12.6992 14.7656 12.3398C14.6094 11.9805 14.3945 11.6602 14.1211 11.3789C13.8477 11.0977 13.5312 10.8828 13.1719 10.7344C12.8125 10.5859 12.4219 10.5078 12 10.5C11.5859 10.5 11.1992 10.5781 10.8398 10.7344C10.4805 10.8906 10.1602 11.1055 9.87891 11.3789C9.59766 11.6523 9.38281 11.9688 9.23438 12.3281C9.08594 12.6875 9.00781 13.0781 9 13.5C9 13.9141 9.07812 14.3008 9.23438 14.6602C9.39062 15.0195 9.60547 15.3398 9.87891 15.6211C10.1523 15.9023 10.4688 16.1172 10.8281 16.2656C11.1875 16.4141 11.5781 16.4922 12 16.5ZM12 3C13.1172 3 14.2266 3.13672 15.3281 3.41016C16.4297 3.68359 17.4688 4.09375 18.4453 4.64062C19.4219 5.1875 20.3047 5.85156 21.0938 6.63281C21.8828 7.41406 22.5312 8.32812 23.0391 9.375C23.3516 10.0234 23.5898 10.6914 23.7539 11.3789C23.918 12.0664 24 12.7734 24 13.5H22.5C22.5 12.5781 22.3594 11.7148 22.0781 10.9102C21.7969 10.1055 21.4102 9.37109 20.918 8.70703C20.4258 8.04297 19.8398 7.44922 19.1602 6.92578C18.4805 6.40234 17.7578 5.96094 16.9922 5.60156C16.2266 5.24219 15.4102 4.96875 14.543 4.78125C13.6758 4.59375 12.8281 4.5 12 4.5C11.1562 4.5 10.3086 4.59375 9.45703 4.78125C8.60547 4.96875 7.79297 5.24219 7.01953 5.60156C6.24609 5.96094 5.51953 6.40234 4.83984 6.92578C4.16016 7.44922 3.57812 8.04297 3.09375 8.70703C2.60938 9.37109 2.21875 10.1055 1.92188 10.9102C1.625 11.7148 1.48438 12.5781 1.5 13.5H0C0 12.7812 0.0820312 12.0781 0.246094 11.3906C0.410156 10.7031 0.648438 10.0312 0.960938 9.375C1.46094 8.34375 2.10547 7.43359 2.89453 6.64453C3.68359 5.85547 4.57031 5.1875 5.55469 4.64062C6.53906 4.09375 7.57812 3.6875 8.67188 3.42188C9.76562 3.15625 10.875 3.01562 12 3Z" fill="black"/>
</svg>
